<svg xmlns="http://www.w3.org/2000/svg" xmlns:xlink="http://www.w3.org/1999/xlink" width="66" height="66" xmlns:v="https://vecta.io/nano"><path d="M64.6 36.4L36.4 64.6c-1.9 1.9-4.9 1.9-6.8 0L1.4 36.4c-1.9-1.9-1.9-4.9 0-6.8L29.6 1.4c1.9-1.9 4.9-1.9 6.8 0l28.2 28.2c1.9 1.9 1.9 4.9 0 6.8z" fill="#2788ed"/><g fill="#1a77d9"><use xlink:href="#B"/><use xlink:href="#B" x="17.7" y="-17.4"/><path d="M9.8 38.5c-3.1-3.2-3.1-8.3.1-11.4 3.1-3.1 8.2-3 11.3.2s3.1 8.3-.1 11.4c-3.1 3-8.2 3-11.3-.2z"/><use xlink:href="#B" x="0.4" y="-35.2"/></g><defs><path id="B" d="M27.1 56.3c-3.1-3.2-3.1-8.3.1-11.4 3.1-3.1 8.2-3 11.3.2s3.1 8.3-.1 11.4c-3.1 3.1-8.2 3-11.3-.2z"/></defs></svg>