<?xml version="1.0" encoding="utf-8"?>
<!-- Generator: Adobe Illustrator 24.3.0, SVG Export Plug-In . SVG Version: 6.00 Build 0)  -->
<svg version="1.1" id="Layer_1" xmlns:v="https://vecta.io/nano"
	 xmlns="http://www.w3.org/2000/svg" xmlns:xlink="http://www.w3.org/1999/xlink" x="0px" y="0px" viewBox="0 0 220 160"
	 style="enable-background:new 0 0 220 160;" xml:space="preserve">
<style type="text/css">
	.st0{fill:none;}
	.st1{fill:#CCCCCC;}
</style>
<path class="st0" d="M279,56.5h24v24h-24V56.5z"/>
<path class="st0" d="M98,68.5h24v24H98V68.5z"/>
<path class="st0" d="M78,48.5h64v64H78V48.5z"/>
<path class="st0" d="M78,48.5h64v64H78V48.5z"/>
<path class="st1" d="M91.3,78.1l5.3-5.3l14.7,14.7l9.3-9.3l8,8V61.8H91.3V78.1z M91.3,85.6v13.5h8.3l8-8L96.7,80.3
	C96.7,80.3,91.3,85.6,91.3,85.6z M107.1,99.2h21.5v-5.5l-8-8L107.1,99.2z M88.7,56.5h42.7c1.5,0,2.7,1.2,2.7,2.7v42.7
	c0,1.5-1.2,2.7-2.7,2.7H88.7c-1.5,0-2.7-1.2-2.7-2.7V59.2C86,57.7,87.2,56.5,88.7,56.5z M119.3,75.2c-2.2,0-4-1.8-4-4
	c0-2.2,1.8-4,4-4c2.2,0,4,1.8,4,4C123.3,73.4,121.5,75.2,119.3,75.2z"/>
</svg>
