<svg xmlns="http://www.w3.org/2000/svg" xmlns:xlink="http://www.w3.org/1999/xlink" viewBox="0 0 400 300" width="406" height="306" xmlns:v="https://vecta.io/nano"><path d="M78.38 29.58h140.21v164.56H78.38zm157.45 10.19h94.26v87.78h-94.26zm43.84 102.5h67.19V176h-67.19z" fill="#e6e6e6"/><path d="M196.3,118.29s-7.2-1.87-9,3.23-18.51-1.54-20.52,13.6c-1.12,8.44-17.15,23.64-38,28.28s-22.25,30.75-22.25,30.75h56.67L200.81,139Z" opacity=".08"/><ellipse cx="207.72" cy="254.32" rx="112.17" ry="25.25" fill="#e6e6e6" opacity=".45"/><path d="M190.59 141s-49.07-5.2-47.22 20.76S172.73 243 172.73 243H233s45.74-70.15 23.49-92.71-27.34-3.19-65.9-9.29z" fill="#68e1fd"/><path fill="#24285b" d="M172.64 251.44l36.68 9.9 32.54-16.52 4.94-8.8H214h-52.18l10.82 15.42z"/><use xlink:href="#B" fill="#68e1fd"/><g fill="#fff"><use xlink:href="#B" opacity=".46"/><path d="M190.59,141s-7.55,11.88-.15,16.13,9.77-.6,9.77-.6,5.51,6.5,10.44,1.46,4.23-15.08-.79-19.71S190.59,141,190.59,141Z"/></g><path d="M192.31 141.36A58.51 58.51 0 0 1 193 148c.1 3 1.07 7.55 5.87 8.43 7.39 1.37 9.35-10.31 9.35-10.31s4.65-11-3.35-12.45c-7.24-1.4-14.03-2.36-12.56 7.69z" fill="#f4a28c"/><path d="M220.79 157.84s-4.58 9.62 7 29.35c6.63 11.3-13.8 30.15-13.8 30.15l-50.83 5.09 9.57 20.57H233s26.48-43.08 28.52-65.24-40.73-19.92-40.73-19.92z" opacity=".08"/><path d="M207.72 146.55s.42-3.55 3.51-3.4 1.88 6.78-3.51 3.4zm-13.63-1.98s1.08-3.4-1.79-4.55-4.52 5.4 1.79 4.55z" fill="#f4a28c"/><circle cx="296.2" cy="159.13" r="9.17" fill="#c9c9c9"/><path fill="#ffd200" d="M175.03 232.89l-4.25-38.74h65.05l-6.49 40.72.93 5.22-55.93.44.69-7.64z"/><path d="M290.49,160.55s17.51,2.08,21,15.45H299.63Z" opacity=".08"/><path d="M201.21,251.44s12.35,4.32,8.11,9.9-10.94-3.69-10.94-3.69Z" fill="#68e1fd"/><path d="M235.83 194.15l-12.89 17a66.54 66.54 0 0 1-29.34 22l-19.26 7.35 51.58-.41h4.35l-.93-5.22z" opacity=".08"/><path d="M192.31 141.36s-12-1.72-6.62-10.52 6.53-2.21 9.06-9 4.81-8.14 8.51-5.23.12 9 5.72 7.31 9.44-3.32 10.5 1.32 0 6.87-3.61 8.46 2.06 7.84-7 10.39-13.79-7.36-13.79-7.36zm9.28 107.93s-49.89-25.47-54.14-11.92 30.13 21.42 52.32 22.24z" fill="#24285b"/><circle cx="203.95" cy="215.01" r="5.57" fill="#fff"/><path d="M213.72,251.28s39.79-39.43,48-27.81-22.2,29.57-43.09,37.09Z" fill="#24285b"/><g fill="#68e1fd"><path d="M215.28,254.26s-11.79,10.5-5,13.59,8.28-7.29,8.28-7.29Z"/><use xlink:href="#C"/></g><use xlink:href="#C" fill="#fff" opacity=".46"/><path d="M254 217.34s-11.26 7.61-7.17 9.71 11-3.48 11-3.48zm-62.74-49.19s4-9.88 9.55-9.08-3.09 12.9-3.09 12.9z" fill="#f4a28c"/><g fill="#c9c9c9"><path d="M94.09 49.21h40.69v55.78H94.09zm152.3 1.3h31.47v29.11h-31.47z"/><path opacity=".44" d="M246.39 87.75h31.47v29.11h-31.47zm41.78 0h31.47v29.11h-31.47z"/></g><g fill="#fff"><path opacity=".63" d="M248.74 74.14l6.15-9.5 7.24 8.47 6.91-12.16 6.47 13.37v3.36h-26.77v-3.54z"/><circle cx="261.88" cy="59.8" r="3.14"/></g><path fill="#c9c9c9" d="M288.42 50.51h31.47v29.11h-31.47z"/><g fill="#fff"><path opacity=".63" d="M290.77 74.14l6.15-9.5 7.23 8.47 6.92-12.16 6.47 13.37v3.36h-26.77v-3.54z"/><circle cx="303.9" cy="59.8" r="3.14"/></g><path fill="#ffd200" d="M54.28 124.85h60.69v34.83H54.28z"/><path d="M76.47 150.84a1.31 1.31 0 0 1-.86-.3l-9-7.12a1.38 1.38 0 0 1-.53-1.08 1.41 1.41 0 0 1 .52-1.09l9-7.25a1.391 1.391 0 0 1 1.74 2.17l-7.65 6.15 7.64 6a1.39 1.39 0 0 1-.86 2.48zm16.3 0a1.37 1.37 0 0 1-1.09-.53 1.39 1.39 0 0 1 .23-1.95l7.64-6-7.65-6.15a1.406 1.406 0 0 1 1.74-2.21l9 7.25a1.41 1.41 0 0 1 .52 1.09 1.38 1.38 0 0 1-.53 1.08l-9 7.12a1.33 1.33 0 0 1-.86.3zm-11.93 0a1.51 1.51 0 0 1-.58-.12 1.4 1.4 0 0 1-.68-1.85l6.56-14.36a1.39 1.39 0 1 1 2.53 1.15L82.11 150a1.4 1.4 0 0 1-1.27.84z" fill="#24285b"/><g fill="#fff"><circle cx="114.45" cy="62.29" r="5.63"/><path opacity=".56" d="M103.17 75.01h23.27v4.61h-23.27z"/><path opacity=".19" d="M103.17 85.44h23.27v4.61h-23.27z"/><path opacity=".46" d="M148.48 49.21h58.15v34.45h-58.15z"/><path d="M148.48 93.5h58.15v11.49h-58.15z"/></g><g fill="#c9c9c9"><path d="M189.75 93.5h16.88v11.49h-16.88zm122.58 59.8h22.5v4.08h-22.5z"/><path opacity=".45" d="M312.33 160.88h22.5v4.08h-22.5z"/></g><defs><path id="B" d="M166.92 169.11c4.59-15.37-4.09-32.16-20.51-19.86-11.26 8.43-24.61 35.32-25.3 60.19-1.6 57.19 68.55-4.33 77.27-37.08l-8.63-5.1s-14.55 27.43-30.4 33.37c-11.44 4.29.78-8.81 7.57-31.52z"/><path id="C" d="M220.79 157.84a16.86 16.86 0 0 1 15-18.44c9-1 20.82-.37 31.33 6.21 20.4 12.79 43 23 37.39 46.16s-46 32.91-46 32.91l-5.4-8.8s35.68-12 29.19-30.91c-5.88-16.97-57.67 11.4-61.51-27.13z"/></defs></svg>