<svg xmlns="http://www.w3.org/2000/svg" viewBox="0 0 400 300" width="406" height="306" xmlns:v="https://vecta.io/nano"><style><![CDATA[.B{fill:#68e1fd}.C{fill:#f4a28c}.D{fill:#fff}.E{opacity:.07}]]></style><ellipse cx="207.55" cy="256.09" rx="164.68" ry="11.38" fill="#e6e6e6" opacity=".45"/><path d="M111.88,179.92,103,208.24A29.06,29.06,0,0,1,87.75,225.8l-13,6.19.52,3.84,19.46-4.2a34.26,34.26,0,0,0,21.09-17.88l13.74-28.29Z" class="C"/><g class="B"><path d="M300.22,244.67s-8.93-2.44-10.87-10.75c0,0,13.83-2.79,14.23,11.49Z" opacity=".19"/><path d="M301.32,243.79s-6.24-9.86-.75-19.08c0,0,10.52,6.68,5.84,19.1Z" opacity=".51"/><path d="M302.92,243.79s3.3-10.41,13.26-12.38c0,0,1.87,6.76-6.45,12.41Z"/></g><path d="M296.45 243.56l1.81 12.38 11.4.05 1.68-12.37-14.89-.06zM182.93 93.02H281v163.13h-98.07zm-7.14-47.969l96.77-15.916 6.118 37.2-96.77 15.916z" fill="#24285b"/><path d="M194.195 31.618l57.757-9.334 1.742 10.781-57.757 9.334z" class="B"/><rect x="191.02" y="141.61" width="81.71" height="26.09" rx="9.29" class="D E"/><circle cx="257.83" cy="154.69" r="6.98" class="B"/><g class="D"><path d="M199.39 151.37h41.13V158h-41.13z"/><rect x="191.02" y="103.61" width="81.71" height="26.09" rx="9.29" class="E"/></g><circle cx="257.83" cy="116.69" r="6.98" class="B"/><g class="D"><path d="M199.39 113.37h41.13V120h-41.13z"/><rect x="186.28" y="42.68" width="81.71" height="26.09" rx="9.29" transform="matrix(.99 -.16 .16 .99 -6.03 37.59)" class="E"/></g><circle cx="252.76" cy="51.54" r="6.98" class="B"/><g class="D"><path d="M194.551 57.741l40.585-6.675 1.076 6.542-40.585 6.675z"/><rect x="191.02" y="181.26" width="81.71" height="26.09" rx="9.29" class="E"/></g><circle cx="257.83" cy="194.34" r="6.98" class="B"/><g class="D"><path d="M199.39 191.02h41.13v6.63h-41.13z"/><rect x="191.02" y="220.91" width="81.71" height="26.09" rx="9.29" class="E"/></g><circle cx="257.83" cy="233.99" r="6.98" class="B"/><path d="M199.39 230.67h41.13v6.63h-41.13z" class="D"/><path d="M141.22 187.91l4.16 60.65-3.87 1.34-15.4-56.74 15.11-5.25z" class="C"/><path d="M146.17 249.6s.84 3.59 3.55 4.71 1.34 5-2.74 2.65a26.25 26.25 0 0 1-3.6-2.52 7.71 7.71 0 0 0-3.65-1.56 1.24 1.24 0 0 1-1-1c-.55-2 3.95-3.86 3.95-3.86zm-70.91-13.77s-2.74 2.1-2.66 4.84-3.78 3.07-3.31-1.32a24.35 24.35 0 0 1 .76-4 7.08 7.08 0 0 0-.07-3.71 1.2 1.2 0 0 1 .52-1.25c1.49-1.22 4.82 1.9 4.82 1.9z" class="B"/><g class="C"><path d="M118.01 100l1.44 5.83-4.73 2.5-.83-9.98 4.12 1.65z"/><path d="M112.78 92.73a3.56 3.56 0 0 1 5.94-.52c1.75 2.2 3.8 5.64 1 7.2-4.21 2.39-7.48-3-7.48-3a6.54 6.54 0 0 1 .54-3.68z"/></g><path fill="#ffd200" d="M85.528 156.601l-21.103-27.04 19.101-14.907 21.103 27.04z"/><path d="M93.36,118.29S73,150.13,77.07,154.82c12.94,14.88,41.67-18.64,41.67-18.64Z" class="C"/><path d="M139.42 113.54a35.15 35.15 0 0 0-40.42-.73c-5.33 3.63-9.44 9-7.56 16.9 4.41 18.4 18.51 30.53 19 46.72l33.38-2.24v-20.84a14.27 14.27 0 0 1 4.55-10.51c2.91-2.68 5.8-7.05 3.82-13.06-1.8-5.33-6.35-11.53-12.77-16.24z" class="B"/><path d="M115.43 96.45s-1-.94-1.52.24 1.2 1.91 1.79 1.34-.27-1.58-.27-1.58z" class="C"/><path d="M122.9,122.21s-7.21,13.79,1.16,27.23-7.5,26.58-7.5,26.58l27.22-1.83V162.31s-1.68-15,3.51-18.41c0,0,8.88-6.4,4.1-16.09s-28.49-5.6-28.49-5.6" opacity=".08"/><path d="M109 114c.64-2.49 3.61-7-.58-15.19-.88-1.73-1.58-5.78.09-8.58 4-6.71 10.38-4.42 9.62-.66s-1.29 5.55-1.29 5.55 12.12 8.69 10.35 15.1c-1.57 5.65-20.89 14.12-18.19 3.78zm-.07 53.91h34.85l5.55 48.22-51.7-2.33 11.3-45.89z" fill="#24285b"/><path d="M124.28,132a9.79,9.79,0,0,1,1.44-13.86,50.17,50.17,0,0,1,6.38-4.24c13.29-7.61,35.38-24.43,44.68-47.63,0,0,2.18-8.48,8.65-8.18s4.24,8.34-2.2,8.26c0,0-5.27,50.34-43.94,69.07a12.46,12.46,0,0,1-15-3.42Z" class="C"/><path fill="#e6e6e6" d="M100 47.99v18.37h11.87l2.6 7.31 3.07-7.31h11.87V47.99H100z"/><path d="M113.22 61.28h0a.91.91 0 0 1-.68-.36l-3.11-4a.92.92 0 0 1 1.45-1.13l2.44 3.14 6-6.5a.92.92 0 1 1 1.35 1.25L113.9 61a.93.93 0 0 1-.68.28z" opacity=".12"/></svg>