<svg xmlns="http://www.w3.org/2000/svg" viewBox="0 0 400 300" width="406" height="306" xmlns:v="https://vecta.io/nano"><style><![CDATA[.B{fill:#68e1fd}.C{fill:#f4a28c}.D{opacity:.39}.E{fill:#c9c9c9}.F{fill:#ffd200}.G{opacity:.08}.H{fill:#24285b}.I{fill:#e6e6e6}]]></style><ellipse cx="200" cy="254.98" rx="154.11" ry="19.67" opacity=".3" class="I"/><path fill="#ccc" d="M112.91 54.49h212.4v147.5h-212.4z"/><path d="M130.89 68.31h92.9v113.53h-92.9z" class="I"/><g class="D E"><path d="M182.22 86.09h9v2.84h-9zm12.06 0h22.5v2.84h-22.5zm-12.06 9.18h22.41v2.84h-22.41zm25.29 0h9.27v2.84h-9.27zm-14.04 9.18h23.31v2.84h-23.31zm-11.25 0h8.73v2.84h-8.73zm0 9.17h26.73v2.84h-26.73z"/></g><path d="M138.49 86.09h35.36v38.98h-35.36z" class="D E"/><path d="M130.89 68.31h92.9v10.4h-92.9z" class="B"/><g class="E"><path d="M186.36 134.65h30.42v2.62h-30.42zm-47.87 0h44.27v2.62h-44.27zm56.69 10.06h21.6v2.62h-21.6zm-56.69 0h52.37v2.62h-52.37zm0 10.06h26.64v2.62h-26.64zm33.84 0h44.45v2.62h-44.45zm-33.84 10.06h68.21v2.62h-68.21z" class="D"/></g><g class="C"><path d="M161.56,97s1.31,6.27.74,10.62a3.22,3.22,0,0,1-3.63,2.77c-2.18-.32-5-1.38-6.15-4.66L150,100.38a5.74,5.74,0,0,1,1.79-6.4C155,91,161,93.12,161.56,97Z"/><path d="M150.42 101.35l-.83 20.99 11.6-.37-4.06-15.12-6.71-5.5z"/></g><path d="M160 97.44a25.71 25.71 0 0 1-5.92.24 5.37 5.37 0 0 1 .69 5.83 4.35 4.35 0 0 1-5 2.34l-.87-8.19a6.57 6.57 0 0 1 2.6-6.17 24.19 24.19 0 0 1 2.58-1.66c2.24-1.22 5.87-.06 7.8-1.9a1.54 1.54 0 0 1 2.55.72c.66 2.44.68 6.41-2.52 8.17a6 6 0 0 1-1.91.62z" class="F"/><path d="M155.45 103.24s-.34-2.45-2.16-2-1.35 3.94 1.19 4zm6.73-2.24l2.07 2.25a1 1 0 0 1-.45 1.67l-2.38.75z" class="C"/><path d="M158.16,110.12a7.63,7.63,0,0,1-4-1.78s.62,3.8,5.26,7.07Z" fill="#ce8172" opacity=".31"/><path d="M152.35,119.07H160a4.93,4.93,0,0,1,4.93,4.93v1.1a0,0,0,0,1,0,0h-17.5a0,0,0,0,1,0,0V124a4.93,4.93,0,0,1,4.93-4.93Z" class="B"/><path d="M241.19 95.55H317v92.63h-75.81z" class="G"/><path d="M233.83 86.36h75.81v92.63h-75.81z" class="I"/><g class="D E"><path d="M275.71 100.87h7.34v2.31h-7.34zm9.84 0h18.36v2.31h-18.36zm-9.84 7.49h18.28v2.31h-18.28zm20.63 0h7.56v2.31h-7.56zm-11.45 7.49h19.02v2.31h-19.02zm-9.18 0h7.12v2.31h-7.12zm0 7.49h21.81v2.31h-21.81z"/></g><path d="M240.03 100.87h28.86v31.81h-28.86z" class="D E"/><path d="M233.83 86.36h75.81v8.49h-75.81z" class="B"/><g class="E"><path d="M279.09 140.5h24.82v2.14h-24.82zm-39.06 0h36.13v2.14h-36.13zm46.25 8.2h17.62v2.14h-17.62zm-46.25 0h42.73v2.14h-42.73zm0 8.21h21.73v2.14h-21.73zm27.6 0h36.27v2.14h-36.27zm-27.6 8.21h55.66v2.14h-55.66z" class="D"/></g><g class="C"><path d="M260.74 109.41a34.56 34.56 0 0 1 .64 9.15 2.78 2.78 0 0 1-3.13 2.38 6.12 6.12 0 0 1-5.3-4l-2.21-4.6a5 5 0 0 1 1.55-5.51c2.83-2.6 7.93-.75 8.45 2.58z"/><path d="M251.14 113.17l-.71 18.07 9.99-.31-3.49-13.03-5.79-4.73zm10.13-.32l1.78 1.93a.88.88 0 0 1-.39 1.44l-2 .65z"/></g><path d="M257.81,120.72a6.6,6.6,0,0,1-3.43-1.53s.53,3.27,4.52,6.08Z" fill="#ce8172" opacity=".31"/><path d="M260.42 107s0 6.13-5.69 6.27c.1 0-.2 3.39-.22 3.56-.3 2.35.31 4.76.26 7.16a2.34 2.34 0 0 1-.25 1.2 2.26 2.26 0 0 1-1.25.79 16.69 16.69 0 0 1-8.5.5 2.44 2.44 0 0 1-2.06-3.48 18.4 18.4 0 0 1 1.11-4c.46-1.16 1.16-2.21 1.61-3.35a33.7 33.7 0 0 0 2-8 10.19 10.19 0 0 1 .52-2.45 7.31 7.31 0 0 1 2.17-2.79 4.65 4.65 0 0 1 3.26-.9c6.07-.12 7.52 2.49 7.04 5.49z" class="F"/><path d="M255.47,114.79s-.29-2.1-1.86-1.75-1.16,3.39,1,3.42Z" class="C"/><path d="M262.75 132.83h-15.24 0v-.28a5 5 0 0 1 5-5h5.31a5 5 0 0 1 5 5v.28h-.07z" class="B"/><path d="M109,127.2a19.46,19.46,0,0,1,2.17-.79A41.81,41.81,0,0,1,122.26,125c6-.17,12.82.08,18.5,2.19,5.38,2,8.55,7,10.49,12.15.61,1.61.88,2.76,2.91,2.48A38.37,38.37,0,0,0,172.55,134c4.81-3.8,9-8.91,14.93-10.42a2.38,2.38,0,0,1,1.42,0c.79.3,1.07,1.28,1.14,2.12a14.41,14.41,0,0,1-2.35,8.51,49.23,49.23,0,0,1-5.59,7c-6.15,6.87-12,14.24-20,19a6.71,6.71,0,0,0-2.95,2.61c-1.43,3.18-.06,34.34,0,39.57h-36l-16.64-42.79c-3-7.66-10-19-4.43-26.94A15.85,15.85,0,0,1,109,127.2Z" class="G"/><g class="B"><path d="M302.8,242.7s-9.62-2.63-11.71-11.57c0,0,14.9-3,15.32,12.36Z" opacity=".58"/><path d="M304,241.75s-6.71-10.62-.8-20.55c0,0,11.32,7.19,6.29,20.57Z" opacity=".73"/><path d="M305.7,241.75s3.55-11.21,14.28-13.33c0,0,2,7.28-7,13.36Z"/></g><path d="M298.73 241.5l1.95 13.33 12.27.05 1.81-13.31-16.03-.07z" class="H"/><path d="M68.14,204.63s.81,12,6.48,8.85-1.43-8.85-1.43-8.85Z" class="C"/><path d="M85.63 126.92s-40.16 28.55-18.43 77.71h6S70.05 169 85.63 152.08s0-25.16 0-25.16z" class="B"/><path d="M85.63 126.92s-40.16 28.55-18.43 77.71h6S70.05 169 85.63 152.08s0-25.16 0-25.16z" fill="#fff" opacity=".2"/><g class="C"><path d="M96.59 111.51l3.42 10.26-8.12 5.15-2.92-17.78 7.62 2.37z"/><path d="M86.59 103a5 5 0 0 1 8.31-1.4c2.71 2.9 6 7.51 2.28 10-5.67 3.84-10.87-3.33-10.87-3.33a9.17 9.17 0 0 1 .28-5.27z"/><path d="M91.46 105.52s-1.85-1.54-2.69.65 2.43 3.26 3.4 2.15-.71-2.8-.71-2.8z"/></g><path d="M56.073 185.135l39.663-10.222 7.128 27.655-39.663 10.222z" class="F"/><path d="M76.65 179.31L83 198l-.34 9.21 9.11-2.32 4.05-16.6-11.04-11.1-8.13 2.12z" class="G"/><path d="M82.42,132a20.76,20.76,0,0,1,13-11.36c11-3.31,31.33.31,37.52,10.63,8.48,14.12-3.93,59-3.93,59L92,193.08S71.58,156.31,82.42,132Z" class="B"/><g class="H"><path d="M129.02 190.21l-4.87 63.71h-7.71l-6.88-49.5-17.04-11.34 36.5-2.87z"/><path d="M92.52 193.08l-10.63 60.84h8.26L108 203.38l-15.48-10.3z"/></g><path d="M98.63 119.62s-17.33 55.84 32.73 59.54L129 190.21l-37 2.87s-13.06-20.5-12.5-49.3c0 0 .31-14.24 10.34-20.54a22.52 22.52 0 0 1 8.79-3.62z" class="G"/><path d="M83.82 253.79l-5 3.67a1.09 1.09 0 0 0 .65 2h8.34a1.09 1.09 0 0 0 1.09-1.09v-4.55zm39.36 0l4.69 3.67a1.1 1.1 0 0 1-.68 2h-5.94a3.17 3.17 0 0 1-3.17-3.17v-2.47z" class="B"/><path d="M86.8 110.44s1.81 3.28 4.8 2.26.84-8.08.84-8.08 3.62-5.22 3.1-9.35a2.33 2.33 0 0 0-4.41-.58 4.11 4.11 0 0 1-3.48 2.15c-5.09.56-9.76 8.6-.85 13.6z" class="H"/><path d="M122.66,123s24.23,13.62,31.78,13.62,26.39-14.21,26.39-14.21l4,8.3s-16,24.94-30.3,23-36.43-14.41-36.43-14.41Z" class="B"/><path d="M180.83,122.44s3.53-7.27,4.7-7.18.72,2.43.72,2.43,3.78-4.23,4.86-3.6,1.17,10.08-6.3,16.65Z" class="C"/><path d="M112.91 41.26h212.4v13.23h-212.4z" class="H"/><circle cx="132.64" cy="47.87" r="3.47" fill="#fff"/><circle cx="142.97" cy="47.87" r="3.47" class="B"/><circle cx="152.7" cy="47.87" r="3.47" class="F"/><path fill="#fff" opacity=".2" d="M235.72 68.31h73.91v8.14h-73.91z"/></svg>